/* XPM */
static char *dummy[]={
"32 32 16 1",
". c None",
"i c #000000",
"# c #134004",
"d c #174116",
"l c #1c1c1b",
"c c #1d5f05",
"g c #1f571e",
"b c #267f07",
"e c #2e822c",
"a c #309f09",
"m c #373736",
"h c #3eae3b",
"n c #454543",
"f c #4dd94a",
"j c #aeac0d",
"k c #f9f613",
"................................",
"................#####...........",
".............###aaa##...........",
".............###aaa##...........",
"...........##bbbbba##...........",
"..........#ccbbbbba##...........",
"..........#ccbbbbba##...........",
"..........#ccbbbbbb##...........",
"..........#ccbbbbbb##...........",
"..........#cccbbbbb##...........",
"..........deecccbbfffg..........",
"..........deecccbbfffg..........",
"..........deehhhhhhhhg..........",
"..........gggghhhhieeg..........",
"..........gggghhhhieeg..........",
"..........ghhhjjeeieed..........",
"..........ghhhjjeeieed..........",
"...........dddkkeeedd...........",
".............dddddd.............",
".............dddddd.............",
"...........ddgeeeeedd...........",
"...........ddghhffgdd...........",
"...........ddghhffgdd...........",
"...........ddghhffgdd...........",
"...........ddghhffgdd...........",
"...........llmggggnll...........",
"...........llmmmnnnll...........",
"...........llmmmnnnll...........",
".............deeeed.............",
"..............dddd..............",
"..............dddd..............",
"................................"};
