/* XPM */
static char *dummy[]={
"32 32 16 1",
". c None",
"i c #000000",
"# c #134004",
"g c #174116",
"l c #1c1c1b",
"c c #1d5f05",
"d c #1f571e",
"b c #267f07",
"f c #2e822c",
"a c #309f09",
"n c #373736",
"h c #3eae3b",
"m c #454543",
"e c #4dd94a",
"j c #aeac0d",
"k c #f9f613",
"................................",
"...........#####................",
"...........##aaa###.............",
"...........##aaa###.............",
"...........##abbbbb##...........",
"...........##abbbbbcc#..........",
"...........##abbbbbcc#..........",
"...........##bbbbbbcc#..........",
"...........##bbbbbbcc#..........",
"...........##bbbbbccc#..........",
"..........deeebbcccffg..........",
"..........deeebbcccffg..........",
"..........dhhhhhhhhffg..........",
"..........dffihhhhdddd..........",
"..........dffihhhhdddd..........",
"..........gffiffjjhhhd..........",
"..........gffiffjjhhhd..........",
"...........ggfffkkggg...........",
".............gggggg.............",
".............gggggg.............",
"...........gghhhhhfgg...........",
"..........dgghhheehhhd..........",
"..........dgghhheehhhd..........",
"..........dgghhhddehhd..........",
"..........dgghhhddehhd..........",
"...........llmmmnnddd...........",
"..........ghhhnnllfffg..........",
"..........ghhhnnllfffg..........",
"..........ghhhllllfffg..........",
"...........ggg....ggg...........",
"...........ggg....ggg...........",
"................................"};
