/* XPM */
static char *dummy[]={
"32 32 17 1",
". c None",
"j c #000000",
"c c #0e2f03",
"# c #134004",
"d c #174116",
"n c #1c1c1b",
"f c #1d5f05",
"g c #1f571e",
"b c #267f07",
"e c #2e822c",
"a c #309f09",
"o c #373736",
"h c #3eae3b",
"m c #454543",
"l c #4dd94a",
"i c #aeac0d",
"k c #f9f613",
"................................",
"..............####..............",
".............#aaaa#.............",
".............#aaaa#.............",
".............#aaaa#.............",
".............#bbbb#.............",
".............#bbbb#.............",
".............cbbbbc.............",
".............cbbbbc.............",
"...........ddbbbbbbdd...........",
"..........deefbbbbfeed..........",
"..........deefbbbbfeed..........",
"......ggggghhhffffhhhggggg......",
"......gghhihhjhhhhjhhihhgg......",
"......gghhihhjhhhhjhhihhgg......",
"........ddkeejhhhhjeekdd........",
"........ddkeejhhhhjeekdd........",
"...........ddeeeeeedd...........",
"..........deeddddddeed..........",
"..........deeddddddeed..........",
"........ddehheeeeeehhedd........",
"......gghhhhhhhhhhhhhhhhgg......",
"......gghhhhhhhhhhhhhhhhgg......",
"......ggllhgghhhhhhgghllgg......",
"......ggllhgghhhhhhgghllgg......",
"........gggmmmmmmmmmmggg........",
"..........nmmmoooommmn..........",
"..........nmmmoooommmn..........",
"..........deeennnneeed..........",
"...........ddd....ddd...........",
"...........ddd....ddd...........",
"................................"};
