/* XPM */
static char *dummy[]={
"32 32 15 1",
". c None",
"c c #0e2f03",
"# c #134004",
"d c #174116",
"l c #1c1c1b",
"f c #1d5f05",
"g c #1f571e",
"b c #267f07",
"e c #2e822c",
"a c #309f09",
"m c #373736",
"h c #3eae3b",
"k c #454543",
"j c #4dd94a",
"i c #f9f613",
"................................",
"..............####..............",
"..............####..............",
".............#aaaa#.............",
".............#aaaa#.............",
".............#aaaa#.............",
".............#bbbb#.............",
".............cbbbbc.............",
".............cbbbbc.............",
"...........ddbbbbbbdd...........",
"...........ddbbbbbbdd...........",
"..........deefbbbbfeed..........",
"......ggggghhhffffhhhggggg......",
"......ggggghhhffffhhhggggg......",
"......ggeeeeehhhhhheeeeegg......",
"........ddieeeeeeeeeeidd........",
"........ddieeeeeeeeeeidd........",
"...........ddeeeeeedd...........",
"...........ddeeeeeedd...........",
"..........deeddddddeed..........",
"........ddehheeeeeehhedd........",
"........ddehheeeeeehhedd........",
"......gghhhhhhhhhhhhhhhhgg......",
"......ggjjhgghhhhhhgghjjgg......",
"......ggjjhgghhhhhhgghjjgg......",
"........gggkkkkkkkkkkggg........",
"........gggkkkkkkkkkkggg........",
"..........lkkkmmmmkkkl..........",
"..........deeelllleeed..........",
"..........deeelllleeed..........",
"...........ddd....ddd...........",
"................................"};
