/* XPM */
static char *dummy[]={
"32 32 414 2",
"Qt c None",
".U c #000000",
"dk c #0d4d00",
"#a c #1a4b00",
".K c #2a2e19",
"cq c #2e361a",
".0 c #353b25",
"cK c #353e1f",
"be c #383924",
"ap c #383a2b",
"dR c #383e1b",
"#m c #393f26",
"#D c #3a3a1f",
"aU c #3a3a24",
"aV c #3a431e",
"dx c #3b461c",
"ay c #3b4622",
"dA c #3c4220",
"dw c #3c4726",
"dc c #3c491d",
"aK c #3d4125",
"bd c #3d422c",
"dh c #3e4319",
"b3 c #3e4a23",
"cm c #3e4a26",
".9 c #3f461c",
"b7 c #404720",
"b4 c #404a29",
"b2 c #40511e",
"#n c #414220",
".z c #414410",
"c1 c #414617",
"av c #41482d",
".s c #42482d",
"#h c #424a2a",
"bH c #424a2c",
"c2 c #424b2a",
".m c #434624",
"dY c #435324",
"db c #445125",
"aC c #445523",
"#C c #454a26",
".h c #464c32",
"bS c #474c37",
"aL c #484821",
"#g c #484c1d",
"dS c #484d2c",
"bC c #485033",
"aJ c #485429",
"dQ c #495123",
"#I c #49581d",
"#Z c #495b16",
"c4 c #497400",
"bi c #4a5e22",
"ao c #4b5631",
"bR c #4c5037",
"cd c #4c523a",
"a6 c #4c5326",
"#B c #4c532a",
"bD c #4c5432",
"dv c #4c562f",
"cn c #4c5930",
"e# c #4c5e15",
"aZ c #4c6119",
"#A c #4d5122",
"dP c #4d552a",
"dd c #4e5c18",
".7 c #4e5e27",
"dq c #4e6514",
".8 c #4f5823",
"b8 c #4f5b2f",
"#l c #4f5d2c",
"#t c #4f750d",
"bT c #505535",
"cJ c #515816",
"#q c #515b2d",
"bt c #525431",
".A c #525b38",
"d# c #52671c",
"cc c #545b3c",
"bG c #546123",
"a5 c #556125",
"cl c #55632d",
"#. c #565a36",
"bB c #565f38",
"ah c #56623b",
"di c #576133",
"dI c #576539",
"ct c #584d00",
"bs c #58592c",
"aT c #595d40",
"dO c #596132",
"da c #596637",
"#E c #5a581c",
"eo c #5a6339",
"du c #5a6436",
"cr c #5a6734",
"bc c #5a6837",
"a. c #5b5f50",
".l c #5b6137",
"cb c #5b623c",
"es c #5b6342",
"#Q c #5b673e",
"ag c #5b6f16",
"ax c #5c6936",
"cj c #5c6d37",
"aI c #5c6e27",
"aW c #5e6b43",
"b1 c #5e7032",
"bK c #5f6525",
"bh c #5f6b21",
"dt c #5f6b37",
"bl c #5f7416",
"bQ c #606432",
"an c #607330",
"bM c #60743b",
"aq c #616023",
"ca c #616838",
"dN c #616939",
"a# c #617033",
".p c #61742f",
"cN c #61821d",
"cx c #626f3e",
".6 c #62782c",
"d5 c #636721",
"cu c #636b32",
"bm c #63713f",
".R c #637220",
"#2 c #639000",
"cv c #646e3c",
"cB c #646e4d",
"cw c #646f3d",
"#6 c #647339",
".w c #647932",
"d8 c #647a2e",
"dL c #656d38",
"ej c #656d4a",
"dM c #656e3c",
".L c #657142",
"dy c #657217",
"cL c #65733b",
"#k c #657a33",
"dH c #657b14",
"eg c #667a2c",
".Z c #676a19",
"ce c #676e38",
"aw c #687937",
".G c #687e35",
"dU c #687f31",
".k c #697b2d",
"bf c #6b6d3e",
"a7 c #6b6e22",
"cp c #6b7117",
"dD c #6b8433",
".r c #6c6e15",
"dz c #6c7715",
"#0 c #6d7555",
"bL c #6d7d41",
".V c #6d8437",
"am c #6d872e",
"bu c #6e7230",
"bU c #6e7434",
"dr c #6f7b53",
".1 c #6f7d47",
"b9 c #6f8044",
"dl c #6f8836",
"c# c #707630",
"bI c #707e41",
"bZ c #707f43",
"em c #70832c",
"aR c #718141",
"#b c #718838",
"en c #727953",
"ei c #72802a",
"aB c #728715",
"c5 c #728b38",
".5 c #728e2f",
"#u c #738b3a",
"al c #739027",
"cs c #748449",
"aM c #757423",
".g c #758528",
"#L c #75a11e",
"a4 c #76841f",
"cV c #76871a",
"cO c #768f3b",
".q c #777d48",
"bE c #777d4e",
"#5 c #779237",
".x c #787c55",
"c3 c #78853f",
"#i c #788c43",
"#M c #78923d",
".Q c #798c21",
"aH c #799022",
"#3 c #799c26",
".N c #799d18",
".H c #7a7d61",
".d c #7a8a24",
"#j c #7a9639",
"br c #7b7f24",
"au c #7c7d72",
"ci c #7c826a",
"cM c #7c8548",
"cH c #7c8c40",
"cU c #7c9415",
"az c #7d836c",
"bA c #7d883d",
"er c #7d9028",
".4 c #7d9d31",
"#o c #7e7f1c",
".W c #7e816d",
"ea c #7e8365",
"#p c #7e8717",
"b5 c #7e8d35",
".O c #7e9c23",
"#4 c #7e9e33",
".P c #7f9924",
"d4 c #808525",
".e c #808752",
"bo c #817769",
"ev c #819324",
".3 c #81a72d",
"a0 c #828a69",
"dB c #828b3a",
"ew c #83894f",
"#c c #848678",
"#J c #85885e",
"bP c #868a2a",
"d6 c #868b30",
"bJ c #869028",
"ck c #869062",
"cG c #869236",
"bb c #869c3d",
"dE c #878978",
".i c #878b59",
"de c #879417",
"ak c #87a519",
"el c #888a16",
"dV c #888a75",
"b6 c #888d1e",
"dm c #898a7a",
"#T c #8a8a1f",
"#v c #8a8b7e",
"cR c #8aa13b",
"aS c #8c8b80",
"c6 c #8c8c7e",
"#S c #8c8f20",
"d9 c #8c8f71",
".2 c #8c996a",
"d2 c #8d912c",
"eh c #8d9268",
".n c #8d9462",
"co c #8d9a2e",
"#P c #8da33b",
"d3 c #8e922a",
"bF c #8f9b44",
"cA c #90a645",
"at c #90a848",
"#x c #90a931",
"cI c #919a27",
"aY c #91a61f",
"ch c #91a748",
"#9 c #91a846",
"b0 c #929285",
".S c #929a36",
".B c #939d6d",
"#N c #949483",
"aD c #94987b",
"bv c #94992d",
".t c #949d6b",
"cP c #959483",
"et c #95965c",
"dZ c #95987c",
"bg c #959946",
"#y c #95a436",
"ad c #95aa3e",
"cS c #969a82",
"bY c #96a43f",
"d. c #97b019",
"d1 c #989527",
"#7 c #989877",
"c. c #999b1e",
"cf c #99a246",
".M c #99a575",
"cW c #99a61b",
"dX c #9aae16",
"cy c #9b9c7e",
"a8 c #9e9f21",
"bk c #9ead43",
"#F c #9f9f1c",
"#z c #9fa320",
"dj c #9faa3b",
"ds c #a1a587",
"af c #a1b432",
"dK c #a2a184",
"bV c #a2a834",
"#R c #a2ae2f",
"#r c #a4a556",
"dT c #a4aa38",
"ai c #a5a585",
".v c #a5a618",
"ep c #a5a66f",
".J c #a5a714",
"d0 c #a6a58e",
"aa c #a6b22e",
"a3 c #a8b01a",
"c8 c #a8bc5f",
"aE c #a9a880",
"eb c #a9a888",
"dJ c #a9aa92",
"aG c #a9bb1a",
"aQ c #a9be3c",
"cF c #aab732",
"dp c #aac220",
"bn c #abad94",
"bq c #abb01c",
"dg c #abb318",
"bj c #acb28a",
"cC c #acb28c",
"ek c #adad84",
"ar c #aead2f",
"aN c #aeae24",
"bz c #aeb93e",
"#e c #aebd38",
"a1 c #afae97",
"#U c #b0b01d",
".E c #b0ba1d",
"cE c #b1c028",
".b c #b2bc35",
"ae c #b2c07c",
"#1 c #b3b37f",
"c0 c #b3b91a",
"cX c #b3bf1d",
"ba c #b3c636",
"ee c #b4b61a",
"aj c #b5b46f",
"bO c #b5b821",
"#H c #b5c41a",
"do c #b5c454",
"## c #b6b63f",
"bw c #b7bc2d",
"cD c #b7c554",
"#f c #b8bd23",
"ey c #b8bf31",
"#Y c #b8cc1c",
"ac c #bbcd36",
"aA c #bdc867",
".c c #bec25d",
"ez c #c0c457",
"cY c #c3cc22",
"bX c #c3cd3c",
"c9 c #c4cf71",
"df c #c5ce17",
"e. c #c5d043",
"cT c #c5d365",
"aX c #c6cd8d",
"ef c #c7c81e",
".y c #c7c926",
"cZ c #c8cf24",
"d7 c #c9cb2a",
"by c #c9d131",
".F c #cacd1f",
"bW c #cad138",
"#V c #cdd120",
"a9 c #cece21",
"eA c #d0d220",
"#K c #d1d05a",
".D c #d1dc15",
".T c #d2d328",
".f c #d2d475",
"#d c #d3d549",
"#X c #d3de2d",
"ab c #d3e02f",
"ex c #d4d368",
".# c #d4d639",
"cg c #d4db69",
"b# c #d4dc25",
"eq c #d5d45f",
"c7 c #d5d77c",
"aP c #d5e233",
"#W c #d6df26",
"a2 c #d7d71e",
"dG c #d7e928",
"bp c #d8d921",
"#w c #d8d960",
".X c #d8da42",
"dn c #dadb7c",
"cQ c #dadc80",
"aO c #dadf2b",
"bx c #dadf2d",
"#G c #dbe01d",
"#O c #dcde77",
"eB c #dfde2b",
".o c #e0e29b",
"as c #e1e75e",
"dF c #e2e271",
".j c #e2e485",
"cz c #e3e682",
".I c #e4e537",
"#8 c #e5e880",
".a c #e6e64b",
"ed c #e7e712",
".Y c #e9ec27",
"dW c #e9ec5b",
"eu c #eae970",
"aF c #ebf10e",
"b. c #eded21",
"dC c #fafb2c",
"ec c #ffff00",
".C c #ffff0d",
"bN c #ffff10",
"#s c #ffff14",
".u c #ffffff",
"QtQtQtQtQtQtQtQtQtQtQtQt.#.aQtQtQtQtQtQtQtQtQtQtQtQtQtQtQtQtQtQt",
"QtQtQtQtQtQtQtQtQtQtQtQt.b.cQtQtQtQtQtQtQtQtQtQtQtQtQtQtQtQtQtQt",
"QtQtQtQtQtQtQtQtQtQtQtQt.d.e.fQtQtQtQtQtQtQtQtQtQtQtQtQtQtQtQtQt",
"QtQtQtQtQtQtQtQtQtQtQtQt.g.h.i.jQtQtQtQtQtQtQtQtQtQtQtQtQtQtQtQt",
"QtQtQtQtQtQtQtQtQtQtQtQt.k.l.m.n.oQtQtQtQtQtQtQtQtQtQtQtQtQtQtQt",
"QtQtQtQtQtQtQtQtQtQtQtQt.p.q.r.s.t.uQtQtQtQtQtQtQtQtQtQtQtQt.vQt",
"QtQtQtQtQtQtQtQtQtQtQtQt.w.x.y.z.A.BQtQtQtQtQtQtQtQtQt.C.D.E.FQt",
"QtQtQtQtQtQtQtQtQtQtQtQt.G.H.I.J.K.L.MQtQtQtQtQt.N.O.P.Q.R.S.TQt",
"QtQtQtQtQtQtQtQtQtQtQt.U.V.W.X.Y.Z.0.1.2Qt.3.4.5.6.7.8.9#.##QtQt",
"QtQtQtQtQtQtQtQtQtQtQt#a#b#c#d#e#f#g#h#i#j#k#l#m#n#o#p#q#r#sQtQt",
"QtQtQtQtQtQtQtQtQtQtQt#t#u#v#w#x#y#z#A#B#C#D#E#F#G#H#I#J#KQtQtQt",
"QtQtQtQtQtQtQtQtQtQtQt#L#M#N#O#P#Q#R#S#T#U#V#W#X#Y#Z#0#1QtQtQtQt",
"QtQtQtQtQtQtQtQt#2#3#4#5#6#7#8#9a.a#aaabacadaeafagahaiajQtQtQtQt",
"QtQtQtQtQtQtakalamanaoapaqarasatauavawaxayazaAaBaCaDaEQtQtQtQtQt",
"QtQtQtaFaGaHaIaJaKaLaMaNaOaPaQaRaSaTaUaVaWaXaYaZa0a1QtQtQtQtQtQt",
"Qta2a3a4a5a6a7a8a9b.b#babbbcbdbebfbgbhbibjbkblbmbnboQtQtQtQtQtQt",
"QtbpbqbrbsbtbubvbwbxbybzbAbBbCbDbEbFbGbHbIbJbKbDbLbMQtQtQtQtQtQt",
"QtQtQtbNbObPbQbRbSbTbUbVbWbXbYbZb0b1b2b3b4b5b6b7b8b9QtQtQtQtQtQt",
"QtQtQtQtQtQtc.c#cacbcccdcecfcgchcicjckclcmcncocpcqcrcsQtQtQtQtQt",
"QtQtQtQtQtQtQtQtctcucvcwcxcyczcAcBcCcDcEcFcGcHcIcJcKcLcMQtQtQtQt",
"QtQtQtQtQtQtQtQtQtQtQtcNcOcPcQcRcScTcUcVcWcXcYcZc0c1c2c3QtQtQtQt",
"QtQtQtQtQtQtQtQtQtQtQtc4c5c6c7c8c9d.d#dadbdcdddedfdgdhdidjQtQtQt",
"QtQtQtQtQtQtQtQtQtQtQtdkdldmdndodpdqdrdsdtdudvdwdxdydzdAdBdCQtQt",
"QtQtQtQtQtQtQtQtQtQtQt.UdDdEdFdGdHdIdJdKQtdLdMdNdOdPdQdRdSdTQtQt",
"QtQtQtQtQtQtQtQtQtQtQtQtdUdVdWdXdYdZd0QtQtQtQtQtd1d2d3d4d5d6d7Qt",
"QtQtQtQtQtQtQtQtQtQtQtQtd8d9e.e#eaebQtQtQtQtQtQtQtQtQtecedeeefQt",
"QtQtQtQtQtQtQtQtQtQtQtQtegeheiejekQtQtQtQtQtQtQtQtQtQtQtQtQtelQt",
"QtQtQtQtQtQtQtQtQtQtQtQtemeneoepeqQtQtQtQtQtQtQtQtQtQtQtQtQtQtQt",
"QtQtQtQtQtQtQtQtQtQtQtQtereseteuQtQtQtQtQtQtQtQtQtQtQtQtQtQtQtQt",
"QtQtQtQtQtQtQtQtQtQtQtQtevewexQtQtQtQtQtQtQtQtQtQtQtQtQtQtQtQtQt",
"QtQtQtQtQtQtQtQtQtQtQtQteyezQtQtQtQtQtQtQtQtQtQtQtQtQtQtQtQtQtQt",
"QtQtQtQtQtQtQtQtQtQtQtQteAeBQtQtQtQtQtQtQtQtQtQtQtQtQtQtQtQtQtQt"};
