/* XPM */
static char *dummy[]={
"32 32 414 2",
"Qt c None",
"#. c #000000",
"#r c #0d4d00",
"dB c #1a4b00",
"d2 c #2a2e19",
"al c #2e361a",
"dN c #353b25",
"#3 c #353e1f",
"bx c #383924",
"cm c #383a2b",
".V c #383e1b",
"dp c #393f26",
"d. c #3a3a1f",
"bT c #3a3a24",
"bS c #3a431e",
"#e c #3b461c",
"cd c #3b4622",
"#b c #3c4220",
"#f c #3c4726",
"#z c #3c491d",
"b3 c #3d4125",
"by c #3d422c",
"#u c #3e4319",
"aK c #3e4a23",
"ap c #3e4a26",
"dE c #3f461c",
"aG c #404720",
"aJ c #404a29",
"aL c #40511e",
"do c #414220",
"eb c #414410",
"#M c #414617",
"cg c #41482d",
"ei c #42482d",
"du c #424a2a",
"a7 c #424a2c",
"#L c #424b2a",
"eo c #434624",
".O c #435324",
"#A c #445125",
"c# c #445523",
"d# c #454a26",
"et c #464c32",
"aV c #474c37",
"b2 c #484821",
"dv c #484c1d",
".U c #484d2c",
"b# c #485033",
"b4 c #485429",
".W c #495123",
"c5 c #49581d",
"cO c #495b16",
"#J c #497400",
"bt c #4a5e22",
"cn c #4b5631",
"aW c #4c5037",
"ay c #4c523a",
"bH c #4c5326",
"da c #4c532a",
"a3 c #4c5432",
"#g c #4c562f",
"ao c #4c5930",
".B c #4c5e15",
"bO c #4c6119",
"db c #4d5122",
".X c #4d552a",
"#y c #4e5c18",
"dG c #4e5e27",
"#l c #4e6514",
"dF c #4f5823",
"aF c #4f5b2f",
"dq c #4f5d2c",
"di c #4f750d",
"aU c #505535",
"#4 c #515816",
"dl c #515b2d",
"bi c #525431",
"ea c #525b38",
"#C c #52671c",
"az c #545b3c",
"a8 c #546123",
"bI c #556125",
"aq c #55632d",
"dD c #565a36",
"ba c #565f38",
"cu c #56623b",
"#t c #576133",
".4 c #576539",
"ai c #584d00",
"bj c #58592c",
"bU c #595d40",
".Y c #596132",
"#B c #596637",
"c9 c #5a581c",
".m c #5a6339",
"#h c #5a6436",
"ak c #5a6734",
"bz c #5a6837",
"cD c #5b5f50",
"ep c #5b6137",
"aA c #5b623c",
".i c #5b6342",
"cX c #5b673e",
"cv c #5b6f16",
"ce c #5c6936",
"as c #5c6d37",
"b5 c #5c6e27",
"bR c #5e6b43",
"aM c #5e7032",
"a4 c #5f6525",
"bu c #5f6b21",
"#i c #5f6b37",
"bq c #5f7416",
"aX c #606432",
"co c #607330",
"a1 c #60743b",
"cl c #616023",
"aB c #616838",
".Z c #616939",
"cC c #617033",
"el c #61742f",
"#0 c #61821d",
"ae c #626f3e",
"dH c #62782c",
".H c #636721",
"ah c #636b32",
"bp c #63713f",
"dV c #637220",
"cL c #639000",
"ag c #646e3c",
"aa c #646e4d",
"af c #646f3d",
"cH c #647339",
"ee c #647932",
".E c #647a2e",
".1 c #656d38",
".r c #656d4a",
".0 c #656e3c",
"d1 c #657142",
"#d c #657217",
"#2 c #65733b",
"dr c #657a33",
".5 c #657b14",
".u c #667a2c",
"dO c #676a19",
"ax c #676e38",
"cf c #687937",
"d6 c #687e35",
".S c #687f31",
"eq c #697b2d",
"bw c #6b6d3e",
"bG c #6b6e22",
"am c #6b7117",
".9 c #6b8433",
"ej c #6c6e15",
"#c c #6c7715",
"cN c #6d7555",
"a2 c #6d7d41",
"dS c #6d8437",
"cp c #6d872e",
"bh c #6e7230",
"aT c #6e7434",
"#k c #6f7b53",
"dM c #6f7d47",
"aE c #6f8044",
"#q c #6f8836",
"aC c #707630",
"a6 c #707e41",
"aO c #707f43",
".o c #70832c",
"bW c #718141",
"dA c #718838",
".n c #727953",
".s c #72802a",
"ca c #728715",
"#I c #728b38",
"dI c #728e2f",
"dh c #738b3a",
"cq c #739027",
"aj c #748449",
"b1 c #757423",
"eu c #758528",
"c2 c #75a11e",
"bJ c #76841f",
"#S c #76871a",
"#Z c #768f3b",
"ek c #777d48",
"b. c #777d4e",
"cI c #779237",
"ed c #787c55",
"#K c #78853f",
"dt c #788c43",
"c1 c #78923d",
"dW c #798c21",
"b6 c #799022",
"cK c #799c26",
"dZ c #799d18",
"d5 c #7a7d61",
"ex c #7a8a24",
"ds c #7a9639",
"bk c #7b7f24",
"ch c #7c7d72",
"at c #7c826a",
"#1 c #7c8548",
"#6 c #7c8c40",
"#T c #7c9415",
"cc c #7d836c",
"bb c #7d883d",
".j c #7d9028",
"dJ c #7d9d31",
"dn c #7e7f1c",
"dR c #7e816d",
".A c #7e8365",
"dm c #7e8717",
"aI c #7e8d35",
"dY c #7e9c23",
"cJ c #7e9e33",
"dX c #7f9924",
".I c #808525",
"ew c #808752",
"bn c #817769",
".f c #819324",
"dK c #81a72d",
"bN c #828a69",
"#a c #828b3a",
".e c #83894f",
"dz c #848678",
"c4 c #85885e",
"aY c #868a2a",
".G c #868b30",
"a5 c #869028",
"ar c #869062",
"#7 c #869236",
"bA c #869c3d",
".8 c #878978",
"es c #878b59",
"#x c #879417",
"cr c #87a519",
".p c #888a16",
".R c #888a75",
"aH c #888d1e",
"#p c #898a7a",
"cU c #8a8a1f",
"dg c #8a8b7e",
"#W c #8aa13b",
"bV c #8c8b80",
"#H c #8c8c7e",
"cV c #8c8f20",
".D c #8c8f71",
"dL c #8c996a",
".K c #8d912c",
".t c #8d9268",
"en c #8d9462",
"an c #8d9a2e",
"cY c #8da33b",
".J c #8e922a",
"a9 c #8f9b44",
"ab c #90a645",
"ci c #90a848",
"de c #90a931",
"#5 c #919a27",
"bP c #91a61f",
"au c #91a748",
"cE c #91a846",
"aN c #929285",
"dU c #929a36",
"e# c #939d6d",
"c0 c #949483",
"c. c #94987b",
"bg c #94992d",
"eh c #949d6b",
"#Y c #959483",
".h c #95965c",
".N c #95987c",
"bv c #959946",
"dd c #95a436",
"cy c #95aa3e",
"#V c #969a82",
"aP c #96a43f",
"#D c #97b019",
".L c #989527",
"cG c #989877",
"aD c #999b1e",
"aw c #99a246",
"d0 c #99a575",
"#R c #99a61b",
".P c #9aae16",
"ad c #9b9c7e",
"bF c #9e9f21",
"br c #9ead43",
"c8 c #9f9f1c",
"dc c #9fa320",
"#s c #9faa3b",
"#j c #a1a587",
"cw c #a1b432",
".2 c #a2a184",
"aS c #a2a834",
"cW c #a2ae2f",
"dk c #a4a556",
".T c #a4aa38",
"ct c #a5a585",
"ef c #a5a618",
".l c #a5a66f",
"d3 c #a5a714",
".M c #a6a58e",
"cB c #a6b22e",
"bK c #a8b01a",
"#F c #a8bc5f",
"b9 c #a9a880",
".z c #a9a888",
".3 c #a9aa92",
"b7 c #a9bb1a",
"bX c #a9be3c",
"#8 c #aab732",
"#m c #aac220",
"bo c #abad94",
"bl c #abb01c",
"#v c #abb318",
"bs c #acb28a",
"a# c #acb28c",
".q c #adad84",
"ck c #aead2f",
"b0 c #aeae24",
"bc c #aeb93e",
"dx c #aebd38",
"bM c #afae97",
"cT c #b0b01d",
"d8 c #b0ba1d",
"#9 c #b1c028",
"ez c #b2bc35",
"cx c #b2c07c",
"cM c #b3b37f",
"#N c #b3b91a",
"#Q c #b3bf1d",
"bB c #b3c636",
".w c #b4b61a",
"cs c #b5b46f",
"aZ c #b5b821",
"c6 c #b5c41a",
"#n c #b5c454",
"dC c #b6b63f",
"bf c #b7bc2d",
"a. c #b7c554",
"dw c #b8bd23",
".c c #b8bf31",
"cP c #b8cc1c",
"cz c #bbcd36",
"cb c #bdc867",
"ey c #bec25d",
".b c #c0c457",
"#P c #c3cc22",
"aQ c #c3cd3c",
"#E c #c4cf71",
"#w c #c5ce17",
".C c #c5d043",
"#U c #c5d365",
"bQ c #c6cd8d",
".v c #c7c81e",
"ec c #c7c926",
"#O c #c8cf24",
".F c #c9cb2a",
"bd c #c9d131",
"d7 c #cacd1f",
"aR c #cad138",
"cS c #cdd120",
"bE c #cece21",
".a c #d0d220",
"c3 c #d1d05a",
"d9 c #d1dc15",
"dT c #d2d328",
"ev c #d2d475",
"dy c #d3d549",
"cQ c #d3de2d",
"cA c #d3e02f",
".d c #d4d368",
"eB c #d4d639",
"av c #d4db69",
"bC c #d4dc25",
".k c #d5d45f",
"#G c #d5d77c",
"bY c #d5e233",
"cR c #d6df26",
"bL c #d7d71e",
".6 c #d7e928",
"bm c #d8d921",
"df c #d8d960",
"dQ c #d8da42",
"#o c #dadb7c",
"#X c #dadc80",
"bZ c #dadf2b",
"be c #dadf2d",
"c7 c #dbe01d",
"cZ c #dcde77",
".# c #dfde2b",
"em c #e0e29b",
"cj c #e1e75e",
".7 c #e2e271",
"er c #e2e485",
"ac c #e3e682",
"d4 c #e4e537",
"cF c #e5e880",
"eA c #e6e64b",
".x c #e7e712",
"dP c #e9ec27",
".Q c #e9ec5b",
".g c #eae970",
"b8 c #ebf10e",
"bD c #eded21",
"## c #fafb2c",
".y c #ffff00",
"e. c #ffff0d",
"a0 c #ffff10",
"dj c #ffff14",
"eg c #ffffff",
"QtQtQtQtQtQtQtQtQtQtQtQtQtQtQtQtQtQt.#.aQtQtQtQtQtQtQtQtQtQtQtQt",
"QtQtQtQtQtQtQtQtQtQtQtQtQtQtQtQtQtQt.b.cQtQtQtQtQtQtQtQtQtQtQtQt",
"QtQtQtQtQtQtQtQtQtQtQtQtQtQtQtQtQt.d.e.fQtQtQtQtQtQtQtQtQtQtQtQt",
"QtQtQtQtQtQtQtQtQtQtQtQtQtQtQtQt.g.h.i.jQtQtQtQtQtQtQtQtQtQtQtQt",
"QtQtQtQtQtQtQtQtQtQtQtQtQtQtQt.k.l.m.n.oQtQtQtQtQtQtQtQtQtQtQtQt",
"Qt.pQtQtQtQtQtQtQtQtQtQtQtQtQt.q.r.s.t.uQtQtQtQtQtQtQtQtQtQtQtQt",
"Qt.v.w.x.yQtQtQtQtQtQtQtQtQt.z.A.B.C.D.EQtQtQtQtQtQtQtQtQtQtQtQt",
"Qt.F.G.H.I.J.K.LQtQtQtQtQt.M.N.O.P.Q.R.SQtQtQtQtQtQtQtQtQtQtQtQt",
"QtQt.T.U.V.W.X.Y.Z.0.1Qt.2.3.4.5.6.7.8.9#.QtQtQtQtQtQtQtQtQtQtQt",
"QtQt###a#b#c#d#e#f#g#h#i#j#k#l#m#n#o#p#q#rQtQtQtQtQtQtQtQtQtQtQt",
"QtQtQt#s#t#u#v#w#x#y#z#A#B#C#D#E#F#G#H#I#JQtQtQtQtQtQtQtQtQtQtQt",
"QtQtQtQt#K#L#M#N#O#P#Q#R#S#T#U#V#W#X#Y#Z#0QtQtQtQtQtQtQtQtQtQtQt",
"QtQtQtQt#1#2#3#4#5#6#7#8#9a.a#aaabacadaeafagahaiQtQtQtQtQtQtQtQt",
"QtQtQtQtQtajakalamanaoapaqarasatauavawaxayazaAaBaCaDQtQtQtQtQtQt",
"QtQtQtQtQtQtaEaFaGaHaIaJaKaLaMaNaOaPaQaRaSaTaUaVaWaXaYaZa0QtQtQt",
"QtQtQtQtQtQta1a2a3a4a5a6a7a8a9b.a3b#babbbcbdbebfbgbhbibjbkblbmQt",
"QtQtQtQtQtQtbnbobpbqbrbsbtbubvbwbxbybzbAbBbCbDbEbFbGbHbIbJbKbLQt",
"QtQtQtQtQtQtbMbNbObPbQbRbSbTbUbVbWbXbYbZb0b1b2b3b4b5b6b7b8QtQtQt",
"QtQtQtQtQtb9c.c#cacbcccdcecfcgchcicjckclcmcncocpcqcrQtQtQtQtQtQt",
"QtQtQtQtcsctcucvcwcxcyczcAcBcCcDcEcFcGcHcIcJcKcLQtQtQtQtQtQtQtQt",
"QtQtQtQtcMcNcOcPcQcRcScTcUcVcWcXcYcZc0c1c2QtQtQtQtQtQtQtQtQtQtQt",
"QtQtQtc3c4c5c6c7c8c9d.d#dadbdcdddedfdgdhdiQtQtQtQtQtQtQtQtQtQtQt",
"QtQtdjdkdldmdndodpdqdrdsdtdudvdwdxdydzdAdBQtQtQtQtQtQtQtQtQtQtQt",
"QtQtdCdDdEdFdGdHdIdJdKQtdLdMdNdOdPdQdRdS#.QtQtQtQtQtQtQtQtQtQtQt",
"QtdTdUdVdWdXdYdZQtQtQtQtQtd0d1d2d3d4d5d6QtQtQtQtQtQtQtQtQtQtQtQt",
"Qtd7d8d9e.QtQtQtQtQtQtQtQtQte#eaebecedeeQtQtQtQtQtQtQtQtQtQtQtQt",
"QtefQtQtQtQtQtQtQtQtQtQtQtQtegeheiejekelQtQtQtQtQtQtQtQtQtQtQtQt",
"QtQtQtQtQtQtQtQtQtQtQtQtQtQtQtemeneoepeqQtQtQtQtQtQtQtQtQtQtQtQt",
"QtQtQtQtQtQtQtQtQtQtQtQtQtQtQtQtereseteuQtQtQtQtQtQtQtQtQtQtQtQt",
"QtQtQtQtQtQtQtQtQtQtQtQtQtQtQtQtQtevewexQtQtQtQtQtQtQtQtQtQtQtQt",
"QtQtQtQtQtQtQtQtQtQtQtQtQtQtQtQtQtQteyezQtQtQtQtQtQtQtQtQtQtQtQt",
"QtQtQtQtQtQtQtQtQtQtQtQtQtQtQtQtQtQteAeBQtQtQtQtQtQtQtQtQtQtQtQt"};
