/* XPM */
static char *dummy[]={
"32 32 414 2",
"Qt c None",
"dz c #000000",
"dN c #0d4d00",
"dA c #1a4b00",
"bp c #2a2e19",
"#q c #2e361a",
"a6 c #353b25",
"## c #353e1f",
"bW c #383924",
"dE c #383a2b",
".I c #383e1b",
"#y c #393f26",
"#5 c #3a3a1f",
"aS c #3a3a24",
"aB c #3a431e",
"#u c #3b461c",
"al c #3b4622",
".H c #3c4220",
"#L c #3c4726",
"ae c #3c491d",
"d6 c #3d4125",
"ck c #3d422c",
".V c #3e4319",
"aE c #3e4a23",
"aq c #3e4a26",
".z c #3f461c",
"#G c #404720",
"ap c #404a29",
"aV c #40511e",
"#h c #414220",
"bN c #414410",
"#a c #414617",
"b# c #41482d",
"bM c #42482d",
"aN c #424a2a",
"aD c #424a2c",
".U c #424b2a",
"c# c #434624",
"bG c #435324",
"at c #445125",
"#l c #445523",
"ai c #454a26",
"cC c #464c32",
"d9 c #474c37",
"dY c #484821",
"a7 c #484c1d",
".u c #484d2c",
"cl c #485033",
"eb c #485429",
".X c #495123",
".O c #49581d",
".3 c #495b16",
"dM c #497400",
"aC c #4a5e22",
"dP c #4b5631",
"ee c #4c5037",
"dJ c #4c523a",
"en c #4c5326",
"ax c #4c532a",
"#F c #4c5432",
"#1 c #4c562f",
"ab c #4c5930",
"b5 c #4c5e15",
"#D c #4c6119",
"aO c #4d5122",
"#d c #4d552a",
"#0 c #4e5c18",
".0 c #4e5e27",
"bi c #4e6514",
".M c #4f5823",
"#p c #4f5b2f",
"#O c #4f5d2c",
"dB c #4f750d",
"d1 c #505535",
"#r c #515816",
".A c #515b2d",
"eo c #525431",
"bo c #525b38",
"aZ c #52671c",
"dU c #545b3c",
"aU c #546123",
"er c #556125",
"aF c #55632d",
".p c #565a36",
"cP c #565f38",
".4 c #56623b",
".G c #576133",
"bj c #576539",
"e# c #584d00",
"es c #58592c",
"ba c #595d40",
"#v c #596132",
"aI c #596637",
"#P c #5a581c",
"cw c #5a6339",
"af c #5a6436",
"#. c #5a6734",
"cO c #5a6837",
"bu c #5b5f50",
"cD c #5b6137",
"d2 c #5b623c",
"c1 c #5b6342",
"bt c #5b673e",
"#k c #5b6f16",
"aA c #5c6936",
"be c #5c6d37",
"eh c #5c6e27",
"am c #5e6b43",
"bd c #5e7032",
"#V c #5f6525",
"aT c #5f6b21",
"au c #5f6b37",
"#U c #5f7416",
"ek c #606432",
"dX c #607330",
".8 c #60743b",
"dg c #616023",
"e. c #616838",
"#M c #616939",
"b. c #617033",
"d. c #61742f",
"dL c #61821d",
"dm c #626f3e",
"#g c #62782c",
".v c #636721",
"d3 c #636b32",
"#E c #63713f",
".o c #637220",
"d4 c #639000",
"dV c #646e3c",
"bB c #646e4d",
"dK c #646f3d",
"df c #647339",
"d# c #647932",
"ds c #647a2e",
"ag c #656d38",
"b6 c #656d4a",
"#2 c #656e3c",
"a5 c #657142",
"#c c #657217",
".T c #65733b",
"#4 c #657a33",
"bF c #657b14",
"dt c #667a2c",
"bq c #676a19",
"dl c #676e38",
"aR c #687937",
"da c #687e35",
"dr c #687f31",
"c9 c #697b2d",
"bx c #6b6d3e",
"ei c #6b6e22",
"#H c #6b7117",
"dq c #6b8433",
"ca c #6c6e15",
".W c #6c7715",
".P c #6d7555",
"#o c #6d7d41",
"db c #6d8437",
"d5 c #6d872e",
"ej c #6e7230",
"dT c #6e7434",
"a0 c #6f7b53",
"aM c #6f7d47",
".9 c #6f8044",
"dp c #6f8836",
"ef c #707630",
"ao c #707e41",
"bX c #707f43",
"du c #70832c",
"bV c #718141",
"dc c #718838",
"c0 c #727953",
"cv c #72802a",
"#C c #728715",
"do c #728b38",
"#x c #728e2f",
"dd c #738b3a",
"ea c #739027",
".S c #748449",
"dQ c #757423",
"c8 c #758528",
"dC c #75a11e",
"ev c #76841f",
"aH c #76871a",
"dn c #768f3b",
"cE c #777d48",
"by c #777d4e",
"dD c #779237",
"cF c #787c55",
".F c #78853f",
"aw c #788c43",
"de c #78923d",
".y c #798c21",
"em c #799022",
"dW c #799c26",
"#f c #799d18",
"cG c #7a7d61",
"c7 c #7a8a24",
"ah c #7a9639",
"ew c #7b7f24",
"bv c #7c7d72",
"bA c #7c826a",
".E c #7c8548",
"#Y c #7c8c40",
"aY c #7c9415",
"#8 c #7d836c",
"dj c #7d883d",
"dv c #7d9028",
"#N c #7d9d31",
".1 c #7e7f1c",
"cH c #7e816d",
"bH c #7e8365",
".N c #7e8717",
"aa c #7e8d35",
".Z c #7e9c23",
"dO c #7e9e33",
".L c #7f9924",
".J c #808525",
"cB c #808752",
".7 c #817769",
"dw c #819324",
"#3 c #81a72d",
"#m c #828a69",
".t c #828b3a",
"c2 c #83894f",
"cI c #848678",
".B c #85885e",
"ep c #868a2a",
".l c #868b30",
"a# c #869028",
"aW c #869062",
"ac c #869236",
"di c #869c3d",
"cW c #878978",
"c. c #878b59",
"#K c #879417",
"eg c #87a519",
".e c #888a16",
"cX c #888a75",
"#W c #888d1e",
"cV c #898a7a",
"ay c #8a8a1f",
"cJ c #8a8b7e",
"b0 c #8aa13b",
"bw c #8c8b80",
"cU c #8c8c7e",
"aP c #8c8f20",
"cY c #8c8f71",
"av c #8c996a",
"#e c #8d912c",
"cZ c #8d9268",
"bL c #8d9462",
"#X c #8d9a2e",
"bS c #8da33b",
".Y c #8e922a",
"bc c #8f9b44",
"bZ c #90a645",
"bU c #90a848",
"bR c #90a931",
"#I c #919a27",
"#T c #91a61f",
"bY c #91a748",
"bT c #91a846",
"bz c #929285",
".g c #929a36",
"a4 c #939d6d",
"cK c #949483",
".5 c #94987b",
"ed c #94992d",
"bn c #949d6b",
"cT c #959483",
"cx c #95965c",
"bk c #95987c",
"bb c #959946",
"bs c #95a436",
"#7 c #95aa3e",
"bC c #969a82",
"cm c #96a43f",
"bh c #97b019",
"#w c #989527",
"cL c #989877",
"el c #999b1e",
"cR c #99a246",
"aL c #99a575",
"as c #99a61b",
"b4 c #9aae16",
"cS c #9b9c7e",
"ec c #9e9f21",
"a. c #9ead43",
"#z c #9f9f1c",
"a8 c #9fa320",
".s c #9faa3b",
"aJ c #a1a587",
"#B c #a1b432",
"aK c #a2a184",
"dI c #a2a834",
"a9 c #a2ae2f",
".q c #a4a556",
".k c #a4aa38",
".Q c #a5a585",
".# c #a5a618",
"b7 c #a5a66f",
"bO c #a5a714",
"a2 c #a6a58e",
"aQ c #a6b22e",
"ey c #a8b01a",
"b1 c #a8bc5f",
".R c #a9a880",
"bl c #a9a888",
"a1 c #a9aa92",
"eq c #a9bb1a",
"cj c #a9be3c",
"ar c #aab732",
"bE c #aac220",
"#n c #abad94",
"ez c #abb01c",
"#b c #abb318",
"an c #acb28a",
"bf c #acb28c",
"bI c #adad84",
"cM c #aead2f",
"dF c #aeae24",
"dH c #aeb93e",
"bQ c #aebd38",
".6 c #afae97",
"aj c #b0b01d",
".f c #b0ba1d",
"aG c #b1c028",
"c6 c #b2bc35",
"#R c #b2c07c",
".C c #b3b37f",
"#s c #b3b91a",
"ad c #b3bf1d",
"dG c #b3c636",
".m c #b4b61a",
".D c #b5b46f",
"et c #b5b821",
".2 c #b5c41a",
"b2 c #b5c454",
".h c #b6b63f",
"d8 c #b7bc2d",
"aX c #b7c554",
"br c #b8bd23",
"dx c #b8bf31",
"#j c #b8cc1c",
"ak c #bbcd36",
"#S c #bdc867",
"cA c #bec25d",
"c3 c #c0c457",
"#Z c #c3cc22",
"cQ c #c3cd3c",
"bD c #c4cf71",
"#t c #c5ce17",
"cu c #c5d043",
"bg c #c5d365",
"#9 c #c6cd8d",
".d c #c7c81e",
"cb c #c7c926",
"#J c #c8cf24",
".c c #c9cb2a",
"dS c #c9d131",
".a c #cacd1f",
"dk c #cad138",
"#6 c #cdd120",
"d7 c #cece21",
"dy c #d0d220",
".r c #d1d05a",
".n c #d1dc15",
".b c #d2d328",
"b9 c #d2d475",
"ce c #d3d549",
"#A c #d3de2d",
"az c #d3e02f",
"cy c #d4d368",
"c5 c #d4d639",
"cn c #d4db69",
"dR c #d4dc25",
"bJ c #d5d45f",
"cq c #d5d77c",
"cN c #d5e233",
"#Q c #d6df26",
"eA c #d7d71e",
"b3 c #d7e928",
"eB c #d8d921",
"cf c #d8d960",
"cd c #d8da42",
"cr c #dadb7c",
"cp c #dadc80",
"dh c #dadf2b",
"d0 c #dadf2d",
"#i c #dbe01d",
"cg c #dcde77",
"c4 c #dfde2b",
"bm c #e0e29b",
"ci c #e1e75e",
"cs c #e2e271",
"bK c #e2e485",
"co c #e3e682",
"cc c #e4e537",
"ch c #e5e880",
"cz c #e6e64b",
".w c #e7e712",
"bP c #e9ec27",
"ct c #e9ec5b",
"b8 c #eae970",
"eu c #ebf10e",
"dZ c #eded21",
".j c #fafb2c",
".K c #ffff00",
".x c #ffff0d",
"ex c #ffff10",
".i c #ffff14",
"a3 c #ffffff",
"QtQtQtQtQtQtQtQtQtQtQtQtQtQtQtQtQtQtQtQtQtQtQtQtQtQtQtQtQtQtQtQt",
"QtQtQtQtQt.#.a.bQtQtQtQtQtQtQtQtQtQtQtQtQtQtQtQt.c.d.eQtQtQtQtQt",
"QtQtQtQtQtQt.f.g.h.iQtQtQtQtQtQtQtQtQtQtQtQt.j.k.l.mQtQtQtQtQtQt",
"QtQtQtQtQtQt.n.o.p.q.rQtQtQtQtQtQtQtQtQtQt.s.t.u.v.wQtQtQtQtQtQt",
"QtQtQtQtQtQt.x.y.z.A.B.C.DQtQtQtQtQtQt.E.F.G.H.I.J.KQtQtQtQtQtQt",
"QtQtQtQtQtQtQt.L.M.N.O.P.Q.RQtQtQtQt.S.T.U.V.W.X.YQtQtQtQtQtQtQt",
"QtQtQtQtQtQtQt.Z.0.1.2.3.4.5.6.7.8.9#.###a#b#c#d#eQtQtQtQtQtQtQt",
"QtQtQtQtQtQtQt#f#g#h#i#j#k#l#m#n#o#p#q#r#s#t#u#v#wQtQtQtQtQtQtQt",
"QtQtQtQtQtQtQtQt#x#y#z#A#B#C#D#E#F#G#H#I#J#K#L#MQtQtQtQtQtQtQtQt",
"QtQtQtQtQtQtQtQt#N#O#P#Q#R#S#T#U#V#W#X#Y#Z#0#1#2QtQtQtQtQtQtQtQt",
"QtQtQtQtQtQtQtQt#3#4#5#6#7#8#9a.a#aaabacadaeafagQtQtQtQtQtQtQtQt",
"QtQtQtQtQtQtQtQtQtahaiajakalamanaoapaqarasatauQtQtQtQtQtQtQtQtQt",
"QtQtQtQtQtQtQtQtavawaxayazaAaBaCaDaEaFaGaHaIaJaKQtQtQtQtQtQtQtQt",
"QtQtQtQtQtQtQtaLaMaNaOaPaQaRaSaTaUaVaWaXaYaZa0a1a2QtQtQtQtQtQtQt",
"QtQtQtQtQta3a4a5a6a7a8a9b.b#babbbcbdbebfbgbhbibjbkblQtQtQtQtQtQt",
"QtQtQtQtbmbnbobpbqbrbsbtbubvbwbxbybzbAbBbCbDbEbFbGbHbIbJQtQtQtQt",
"QtQtQtbKbLbMbNbObPbQbRbSbTbUbVbW#FbXbYbZb0b1b2b3b4b5b6b7b8QtQtQt",
"QtQtb9c.c#cacbcccdcecfcgchcicjckclcmcncocpcqcrcsctcucvcwcxcyQtQt",
"czcAcBcCcDcEcFcGcHcIcJcKcLcMcNcOcPcQcRcScTcUcVcWcXcYcZc0c1c2c3c4",
"c5c6c7c8c9d.d#dadbdcdddedfdgdhdidjdkdldmdndodpdqdrdsdtdudvdwdxdy",
"QtQtQtQtQtQtQtQtdzdAdBdCdDdEdFdGdHdIdJdKdLdMdNdzQtQtQtQtQtQtQtQt",
"QtQtQtQtQtQtQtQtQtQtQtQtdOdPdQdRdSdTdUdVQtQtQtQtQtQtQtQtQtQtQtQt",
"QtQtQtQtQtQtQtQtQtQtQtQtdWdXdYdZd0d1d2d3QtQtQtQtQtQtQtQtQtQtQtQt",
"QtQtQtQtQtQtQtQtQtQtQtQtd4d5d6d7d8d9e.e#QtQtQtQtQtQtQtQtQtQtQtQt",
"QtQtQtQtQtQtQtQtQtQtQtQtQteaebecedeeefQtQtQtQtQtQtQtQtQtQtQtQtQt",
"QtQtQtQtQtQtQtQtQtQtQtQtQtegeheiejekelQtQtQtQtQtQtQtQtQtQtQtQtQt",
"QtQtQtQtQtQtQtQtQtQtQtQtQtQtemeneoepQtQtQtQtQtQtQtQtQtQtQtQtQtQt",
"QtQtQtQtQtQtQtQtQtQtQtQtQtQteqeresetQtQtQtQtQtQtQtQtQtQtQtQtQtQt",
"QtQtQtQtQtQtQtQtQtQtQtQtQtQteuevewexQtQtQtQtQtQtQtQtQtQtQtQtQtQt",
"QtQtQtQtQtQtQtQtQtQtQtQtQtQtQteyezQtQtQtQtQtQtQtQtQtQtQtQtQtQtQt",
"QtQtQtQtQtQtQtQtQtQtQtQtQtQtQteAeBQtQtQtQtQtQtQtQtQtQtQtQtQtQtQt",
"QtQtQtQtQtQtQtQtQtQtQtQtQtQtQtQtQtQtQtQtQtQtQtQtQtQtQtQtQtQtQtQt"};
