/* XPM */
static char *dummy[]={
"32 32 414 2",
"Qt c None",
".Z c #000000",
".B c #584d00",
"ew c #888a16",
"d2 c #ffff00",
"eB c #a5a618",
".0 c #0d4d00",
"#b c #1a4b00",
".I c #639000",
"bK c #ffffff",
"ed c #ffff0d",
".1 c #497400",
"#a c #4f750d",
"dF c #817769",
"de c #989527",
"dE c #60743b",
".2 c #61821d",
"d9 c #b5b46f",
".d c #ffff10",
"dv c #799d18",
"es c #ffff14",
"## c #75a11e",
"d8 c #7c8548",
"a4 c #d5d45f",
"#I c #dfde2b",
"bp c #e0e29b",
"ab c #e6e64b",
"er c #fafb2c",
".p c #999b1e",
".g c #ebf10e",
"cv c #656d38",
"b3 c #a2a184",
"ee c #e7e712",
".u c #87a519",
"cg c #8c996a",
"cK c #81a72d",
".J c #636b32",
"en c #d1dc15",
"aE c #eae970",
".Q c #799c26",
"dw c #8d912c",
"dV c #a9a880",
"a3 c #e2e485",
".# c #d8d921",
"bL c #a6a58e",
"dU c #748449",
"dN c #7e9c23",
"ej c #d1d05a",
".a c #d7d71e",
"b2 c #99a575",
"#c c #d0d220",
"ei c #9faa3b",
".h c #b5b821",
"#H c #d4d639",
"cL c #656e3c",
"ez c #d2d328",
"ac c #d4d368",
"ey c #c9cb2a",
".k c #a9bb1a",
".v c #707630",
"c0 c #7d9d31",
"eo c #b4b61a",
"aD c #d2d475",
"bq c #a9a888",
".A c #739027",
"ev c #b0ba1d",
".R c #646e3c",
"bJ c #939d6d",
"ex c #c7c81e",
"dO c #8e922a",
"dG c #afae97",
".Y c #7e9e33",
"eA c #cacd1f",
"e. c #b3b37f",
"dD c #6f8044",
"d1 c #7f9924",
"et c #b6b63f",
"d7 c #78853f",
"#J c #c0c457",
"c1 c #616939",
"eq c #a4aa38",
".b c #abb01c",
"a5 c #adad84",
"aa c #bec25d",
"#d c #b8bf31",
"#G c #b2bc35",
".l c #868a2a",
"dd c #728e2f",
"#F c #7a8a24",
"#e c #819324",
"bo c #949d6b",
".c c #a8b01a",
"#E c #758528",
"#f c #7d9028",
"ch c #5f6b37",
".o c #799022",
"#D c #697b2d",
"#g c #70832c",
".C c #616838",
"#h c #667a2c",
"#C c #61742f",
"cu c #7a9639",
"d3 c #808525",
"dn c #abad94",
"#B c #647932",
"#i c #647a2e",
".H c #6d872e",
"#j c #687f31",
"#A c #687e35",
"b4 c #a1a587",
".3 c #646f3d",
"dm c #6d7d41",
"dW c #a5a585",
"ec c #798c21",
"aF c #a5a66f",
"#k c #6b8433",
"#z c #6d8437",
"dT c #65733b",
"cf c #788c43",
"ek c #a4a556",
"#l c #6f8836",
"#y c #718838",
"#. c #779237",
"a2 c #8d9462",
"df c #596132",
"#m c #728b38",
"eh c #828b3a",
"#x c #738b3a",
"bM c #a9aa92",
"#n c #768f3b",
"b1 c #6f7d47",
"du c #62782c",
"#w c #78923d",
".e c #7b7f24",
"ad c #95965c",
".q c #606432",
"cw c #5a6436",
".f c #76841f",
"aC c #878b59",
".t c #5c6e27",
"ef c #636721",
".K c #5b623c",
"cJ c #657a33",
"dH c #94987b",
"br c #95987c",
"dC c #5a6734",
"bI c #657142",
"e# c #85885e",
"em c #637220",
"d6 c #576133",
".P c #607330",
"dx c #4d552a",
"eu c #929a36",
"dM c #4e5e27",
"ep c #868b30",
"#o c #626f3e",
"#v c #647339",
".i c #58592c",
"a6 c #7e8365",
"bm c #2a2e19",
"dk c #2e361a",
"bH c #353b25",
"dB c #353e1f",
"aR c #383924",
".9 c #383a2b",
"d4 c #383e1b",
"dc c #393f26",
"cI c #3a3a1f",
"bV c #3a3a24",
"ca c #3a431e",
"dg c #3b461c",
"cq c #3b4622",
"d5 c #3c4220",
"c2 c #3c4726",
"cx c #3c491d",
".G c #3d4125",
"aq c #3d422c",
"dR c #3e4319",
"b9 c #3e4a23",
"cl c #3e4a26",
"eb c #3f461c",
"c7 c #404720",
"cm c #404a29",
"bS c #40511e",
"dt c #414220",
"a0 c #414410",
"dA c #414617",
"bC c #41482d",
"a1 c #42482d",
"b0 c #424a2a",
"c. c #424a2c",
"dS c #424b2a",
"aB c #434624",
"a7 c #435324",
"ci c #445125",
"dp c #445523",
"ct c #454a26",
"a. c #464c32",
".D c #474c37",
".O c #484821",
"bG c #484c1d",
"eg c #484d2c",
"ap c #485033",
".z c #485429",
"dP c #495123",
"dY c #49581d",
"dJ c #495b16",
"c# c #4a5e22",
".X c #4b5631",
".w c #4c5037",
".4 c #4c523a",
".n c #4c5326",
"ce c #4c532a",
"aQ c #4c5432",
"cM c #4c562f",
"cA c #4c5930",
"aH c #4c5e15",
"c9 c #4c6119",
"bZ c #4d5122",
"cN c #4e5c18",
"bt c #4e6514",
"d0 c #4f5823",
"dl c #4f5b2f",
"cZ c #4f5d2c",
".L c #505535",
"dj c #515816",
"ea c #515b2d",
".m c #525431",
"bn c #525b38",
"bO c #52671c",
".S c #545b3c",
"bT c #546123",
".j c #556125",
"b8 c #55632d",
"el c #565a36",
"#X c #565f38",
"dI c #56623b",
"bs c #576539",
"bB c #595d40",
"b5 c #596637",
"cY c #5a581c",
"ae c #5a6339",
"#Y c #5a6837",
"bh c #5b5f50",
"#9 c #5b6137",
"#L c #5b6342",
"bi c #5b673e",
"dq c #5b6f16",
"cb c #5c6936",
"bx c #5c6d37",
"cp c #5e6b43",
"by c #5e7032",
"cS c #5f6525",
"bU c #5f6b21",
"cT c #5f7416",
"#u c #616023",
"bD c #617033",
"c8 c #63713f",
"ba c #646e4d",
"aG c #656d4a",
"dy c #657217",
"a8 c #657b14",
"bl c #676a19",
"#p c #676e38",
"bW c #687937",
"be c #6b6d3e",
".s c #6b6e22",
"c6 c #6b7117",
"aA c #6c6e15",
"dQ c #6c7715",
"dX c #6d7555",
".r c #6e7230",
".T c #6e7434",
"bN c #6f7b53",
"cn c #707e41",
"aP c #707f43",
"aS c #718141",
"#M c #727953",
"af c #72802a",
"d. c #728715",
".W c #757423",
"b6 c #76871a",
"#8 c #777d48",
"bd c #777d4e",
"#7 c #787c55",
"#6 c #7a7d61",
"bg c #7c7d72",
"bb c #7c826a",
"cP c #7c8c40",
"bP c #7c9415",
"cF c #7d836c",
"#r c #7d883d",
"dL c #7e7f1c",
"#5 c #7e816d",
"dZ c #7e8717",
"cB c #7e8d35",
"a# c #808752",
"do c #828a69",
"#K c #83894f",
"#4 c #848678",
"cC c #869028",
"bR c #869062",
"cz c #869236",
"#s c #869c3d",
"#Q c #878978",
"c3 c #879417",
"#P c #888a75",
"cR c #888d1e",
"#R c #898a7a",
"cd c #8a8a1f",
"#3 c #8a8b7e",
"aM c #8aa13b",
"bf c #8c8b80",
"#S c #8c8c7e",
"bY c #8c8f20",
"#O c #8c8f71",
"#N c #8d9268",
"cQ c #8d9a2e",
"aV c #8da33b",
"bz c #8f9b44",
"aN c #90a645",
"aT c #90a848",
"aW c #90a931",
"c5 c #919a27",
"cU c #91a61f",
"aO c #91a748",
"aU c #91a846",
"bc c #929285",
"#2 c #949483",
".x c #94992d",
"#T c #959483",
"bA c #959946",
"bj c #95a436",
"cG c #95aa3e",
"b# c #969a82",
"ao c #96a43f",
"bu c #97b019",
"#1 c #989877",
"#V c #99a246",
"cj c #99a61b",
"aI c #9aae16",
"#U c #9b9c7e",
".y c #9e9f21",
"cD c #9ead43",
"db c #9f9f1c",
"bF c #9fa320",
"d# c #a1b432",
".5 c #a2a834",
"bE c #a2ae2f",
"aZ c #a5a714",
"bX c #a6b22e",
"aL c #a8bc5f",
"ar c #a9be3c",
"ck c #aab732",
"a9 c #aac220",
"dz c #abb318",
"co c #acb28a",
"bw c #acb28c",
"#0 c #aead2f",
".8 c #aeae24",
".6 c #aeb93e",
"aX c #aebd38",
"cs c #b0b01d",
"b7 c #b1c028",
"cW c #b2c07c",
"di c #b3b91a",
"cy c #b3bf1d",
".7 c #b3c636",
"dK c #b5c41a",
"aK c #b5c454",
".E c #b7bc2d",
"bQ c #b7c554",
"bk c #b8bd23",
"dr c #b8cc1c",
"cr c #bbcd36",
"cV c #bdc867",
"cO c #c3cc22",
"#W c #c3cd3c",
"b. c #c4cf71",
"dh c #c5ce17",
"ag c #c5d043",
"bv c #c5d365",
"cE c #c6cd8d",
"az c #c7c926",
"c4 c #c8cf24",
".U c #c9d131",
"#q c #cad138",
"cH c #cdd120",
".F c #cece21",
"aw c #d3d549",
"da c #d3de2d",
"cc c #d3e02f",
"an c #d4db69",
".V c #d4dc25",
"ak c #d5d77c",
"#Z c #d5e233",
"cX c #d6df26",
"aJ c #d7e928",
"av c #d8d960",
"ax c #d8da42",
"aj c #dadb7c",
"al c #dadc80",
"#t c #dadf2b",
".M c #dadf2d",
"ds c #dbe01d",
"au c #dcde77",
"as c #e1e75e",
"ai c #e2e271",
"am c #e3e682",
"ay c #e4e537",
"at c #e5e880",
"aY c #e9ec27",
"ah c #e9ec5b",
".N c #eded21",
"QtQtQtQtQtQtQtQtQtQtQtQtQtQtQtQtQtQtQtQtQtQtQtQtQtQtQtQtQtQtQtQt",
"QtQtQtQtQtQtQtQtQtQtQtQtQtQtQt.#.aQtQtQtQtQtQtQtQtQtQtQtQtQtQtQt",
"QtQtQtQtQtQtQtQtQtQtQtQtQtQtQt.b.cQtQtQtQtQtQtQtQtQtQtQtQtQtQtQt",
"QtQtQtQtQtQtQtQtQtQtQtQtQtQt.d.e.f.gQtQtQtQtQtQtQtQtQtQtQtQtQtQt",
"QtQtQtQtQtQtQtQtQtQtQtQtQtQt.h.i.j.kQtQtQtQtQtQtQtQtQtQtQtQtQtQt",
"QtQtQtQtQtQtQtQtQtQtQtQtQtQt.l.m.n.oQtQtQtQtQtQtQtQtQtQtQtQtQtQt",
"QtQtQtQtQtQtQtQtQtQtQtQtQt.p.q.r.s.t.uQtQtQtQtQtQtQtQtQtQtQtQtQt",
"QtQtQtQtQtQtQtQtQtQtQtQtQt.v.w.x.y.z.AQtQtQtQtQtQtQtQtQtQtQtQtQt",
"QtQtQtQtQtQtQtQtQtQtQtQt.B.C.D.E.F.G.H.IQtQtQtQtQtQtQtQtQtQtQtQt",
"QtQtQtQtQtQtQtQtQtQtQtQt.J.K.L.M.N.O.P.QQtQtQtQtQtQtQtQtQtQtQtQt",
"QtQtQtQtQtQtQtQtQtQtQtQt.R.S.T.U.V.W.X.YQtQtQtQtQtQtQtQtQtQtQtQt",
"QtQtQtQtQtQtQtQt.Z.0.1.2.3.4.5.6.7.8.9#.###a#b.ZQtQtQtQtQtQtQtQt",
"#c#d#e#f#g#h#i#j#k#l#m#n#o#p#q#r#s#t#u#v#w#x#y#z#A#B#C#D#E#F#G#H",
"#I#J#K#L#M#N#O#P#Q#R#S#T#U#V#W#X#Y#Z#0#1#2#3#4#5#6#7#8#9a.a#aaab",
"QtQtacadaeafagahaiajakalamanaoapaqarasatauavawaxayazaAaBaCaDQtQt",
"QtQtQtaEaFaGaHaIaJaKaLaMaNaOaPaQaRaSaTaUaVaWaXaYaZa0a1a2a3QtQtQt",
"QtQtQtQta4a5a6a7a8a9b.b#babbbcbdbebfbgbhbibjbkblbmbnbobpQtQtQtQt",
"QtQtQtQtQtQtbqbrbsbtbubvbwbxbybzbAbBbCbDbEbFbGbHbIbJbKQtQtQtQtQt",
"QtQtQtQtQtQtQtbLbMbNbObPbQbRbSbTbUbVbWbXbYbZb0b1b2QtQtQtQtQtQtQt",
"QtQtQtQtQtQtQtQtb3b4b5b6b7b8b9c.c#cacbcccdcecfcgQtQtQtQtQtQtQtQt",
"QtQtQtQtQtQtQtQtQtchcicjckclcmcncocpcqcrcsctcuQtQtQtQtQtQtQtQtQt",
"QtQtQtQtQtQtQtQtcvcwcxcyczcAcBcCcDcEcFcGcHcIcJcKQtQtQtQtQtQtQtQt",
"QtQtQtQtQtQtQtQtcLcMcNcOcPcQcRcScTcUcVcWcXcYcZc0QtQtQtQtQtQtQtQt",
"QtQtQtQtQtQtQtQtc1c2c3c4c5c6c7aQc8c9d.d#dadbdcddQtQtQtQtQtQtQtQt",
"QtQtQtQtQtQtQtdedfdgdhdidjdkdldmdndodpdqdrdsdtdudvQtQtQtQtQtQtQt",
"QtQtQtQtQtQtQtdwdxdydzdAdBdCdDdEdFdGdHdIdJdKdLdMdNQtQtQtQtQtQtQt",
"QtQtQtQtQtQtQtdOdPdQdRdSdTdUQtQtQtQtdVdWdXdYdZd0d1QtQtQtQtQtQtQt",
"QtQtQtQtQtQtd2d3d4d5d6d7d8QtQtQtQtQtQtd9e.e#eaebecedQtQtQtQtQtQt",
"QtQtQtQtQtQteeefegeheiQtQtQtQtQtQtQtQtQtQtejekelemenQtQtQtQtQtQt",
"QtQtQtQtQtQteoepeqerQtQtQtQtQtQtQtQtQtQtQtQteseteuevQtQtQtQtQtQt",
"QtQtQtQtQtewexeyQtQtQtQtQtQtQtQtQtQtQtQtQtQtQtQtezeAeBQtQtQtQtQt",
"QtQtQtQtQtQtQtQtQtQtQtQtQtQtQtQtQtQtQtQtQtQtQtQtQtQtQtQtQtQtQtQt"};
