/* XPM */
static char *dummy[]={
"32 32 7 1",
". c #645045",
"# c #2f2f2e",
"e c #684228",
"c c #7c4e2e",
"d c #8b5936",
"b c #99643e",
"a c #b97f56",
"................................",
"................................",
"..############################..",
".#aabbcddcdcbb####bbcddcdcbbaa#.",
"#aabbdcdddccbb####bbcdccdccbbaa#",
"aabbddccddcabb####bbacccddccbbaa",
"cbbdddccccabbb####bbbaccdddcdbbc",
"cbcdddccaabdbb####bbdbaacddcddbc",
"cbcdddcabbddbb####bbddbbacccddbc",
"cbcddcabdddabb####bbaddcbaccdcbc",
"cbcccabddddbbb####bbbddcdbacccbc",
"cbcaabcddddbeb####bebcdcddbaacbc",
"cbabbdccddcbeb####bebcdcdcdbbabc",
"cbbccdcddccbbb####bbbcccdddcdbbc",
"cbccddccccabbb####bbbaccdcdcdcbc",
"cbccddccaabcbb####bbcbaaccdcddbc",
"cbcdddcabbdcbb####bbccbbacccdcbc",
"cbcddcabdddcbb####bbdcdcbaccdcbc",
"cbcccabddcddbb####bbcddccbacccbc",
"cbcaabcdccccbb####bbcdddcdbaacbc",
"cbabbdccdccabb####bbacddcddbbabc",
"cbbdcdccccabbb####bbbacccdccdbbc",
"cbcdddccaabb########bbaaccdcdcbc",
"cbcddccabb############bbacdcdcbc",
"cbccccab################baccddbc",
"cbcccab##################baccdbc",
"cbcaab####............####baacbc",
"cbabb###................###bbabc",
"cbb###....................###bbc",
"c###........................###c",
"#..............................#",
"................................"};
