/* XPM */
static char *dummy[]={
"32 32 7 1",
". c #645045",
"a c #2f2f2e",
"e c #684228",
"d c #7c4e2e",
"g c #8b5936",
"f c #99643e",
"c c #b97f56",
"................................",
"................................",
".....aaaaaaaaaaaaaaaaaaaaaa.....",
"..aaaccccccccccaaccccccccccaaa..",
"aacccccccccccccdecccccccccccccaa",
"cccccffffffffffdeffffffffffccccc",
"ccfffffffffffffdefffffffffffffcc",
"fffffgdgggggdffdeffdgggdgddfffff",
"fffgggdgggggdffdeffdgggdgdddgfff",
"ffdgggdgggdgdffdeffdggddggddggff",
"ffdgggddgggddffdeffdggddgggdggff",
"ffdgggddgggddffdeffdgdddgggdgdff",
"ffdddddddddddffdeffdddddddddddff",
"ffcccccccccccffdeffcccccccccccff",
"fffffffffffffffdefffffffffffffff",
"ffdddgdggggggffdeffggggdgggdgdff",
"ffddggddgggccffdeffccggdgdgdgdff",
"ffddggdggggffffdeffffggdgdgdggff",
"ffdgggddgggfeefdefeefdgdgggdgdff",
"ffdgggdddgdfeefdefeefdgdgdgdgdff",
"ffdddddddddfeffdeffefdddddddddff",
"ffcccccccccffffdeffffcccccccccff",
"fffffffffffffffdefffffffffffffff",
"ffdgdgdgggggdffdeffddgddgggdgdff",
"ffdgggdgdgdgdffdeffgdgddggddgdff",
"ffddggddggdggffdeffdgggdgdgdgdff",
"ffddgdddggddgffdeffdgggdgdgdggff",
"ffdddddddddddffdeffdddddddddddff",
"ffcccccccccccffdeffcccccccccccff",
"fffffffffffffffdefffffffffffffff",
"aaaaaaaaaaaaaaaaaaaaaaaaaaaaaaaa",
"................................"};
