/* XPM */
static char *dummy[]={
"32 32 3 1",
"# c #4f4038",
"a c #54443b",
". c #645045",
"................................",
"................................",
"................................",
"................................",
"................................",
"................................",
"........................######..",
".........................aaa....",
"................................",
"................................",
"................................",
"................................",
"................................",
"................................",
"...................aaaa.........",
"................................",
".......#######..................",
".....##aaaaaaa..................",
".....aaaaa......................",
"................................",
"................................",
"................................",
"................................",
".................#####..........",
"..............###aaaaa#.........",
"................aaaaaaa.........",
"................................",
"................................",
"................................",
"................................",
"................................",
"................................"};
