/* XPM */
static char *dummy[]={
"32 32 8 1",
"a c #2f2f2e",
"e c #515150",
"d c #5a5a59",
". c #645045",
"b c #646463",
"g c #676767",
"f c #6e6e6e",
"c c #8a8a8a",
"................................",
"................................",
"....aaaaaaa.aaaaaaaa.aaaaaaa....",
"...abbbbbbbabbbbbbbbabbbbbbba...",
"...abccccccbccccccccbccccccba...",
"...abccccddddddddddddddccccba...",
"...abbbbbeeeeeeeeeeeeeebbbbba...",
"...abcccbaaaaaaaaaaaaaabcccba...",
"..aabccfbaaaaaaaaaaaaaabfccbaa..",
".accbcccbaaaaaaaaaaaaaabcccbcca.",
".accbbbbbaaaaaaaaaaaaaabbbbbcca.",
".accbcccbbbabbbbbbbbabbbcccbcca.",
".accbffccccbccccccccbccccffbcca.",
".accbccccccbccccccccbccccccbcca.",
".accdffffffdffffffffdffffffdcca.",
".accdffffffdffffffffdffffffdcca.",
".accddddddddddddddddddddddddcca.",
".accdcccdccccccccccccccdcccdcca.",
".accdfffdffffffffffffffdfffdcca.",
".accdfffdffffffffffffffdfffdcca.",
".accdgggdggggggggggggggdgggdcca.",
".accddddddddddddddddddddddddcca.",
".accdcdcccccccdccccccccccdcdcca.",
".accdfdfffffffdffffffffffdfdcca.",
".accdfdfffffffdffffffffffdfdcca.",
".accdgdgggggggdggggggggggdgdcca.",
".accddddddddddddddddddddddddcca.",
".affffffffffffffffffffffffffffa.",
".agggggggggggggggggggggggggggga.",
".agggggggggggggggggggggggggggga.",
".aaaaaaaaaaaaaaaaaaaaaaaaaaaaaa.",
"................................"};
