/* XPM */
static char *dummy[]={
"7 7 2 1",
". c None",
"# c #ffffff",
"..###..",
".##....",
".##....",
".####..",
".##.##.",
".##.##.",
"..###.."};
