/* XPM */
static char *dummy[]={
"32 32 31 1",
". c None",
"x c #160808",
"# c #000000",
"h c #060000",
"z c #352b1b",
"v c #372532",
"c c #3f0905",
"t c #404545",
"y c #4e412b",
"p c #511738",
"u c #644c4c",
"n c #676c71",
"a c #681c00",
"j c #6b1717",
"w c #723f5c",
"l c #753e2d",
"m c #7c2454",
"C c #8b795b",
"o c #972b60",
"q c #a0a7ad",
"k c #a33333",
"b c #ab400a",
"A c #ac5e90",
"s c #bd3776",
"B c #c2a27c",
"e c #d48c52",
"d c #d77708",
"r c #d7d9e4",
"i c #e3e0dd",
"f c #ebb385",
"g c #ffd9ad",
"................................",
"............######..............",
"..........##abbbac##............",
".........#bddbaaaaac#...........",
"........#bddbccccacac#..........",
".......#abdddacabbbaca#.........",
".......#bbbbdcbbabdbaac#........",
".......#babdaabdbbddbac#........",
".......#abbaecaddbabaac#........",
".......#abaffecabbbca#c#........",
".......#acfghhheaaaccc##........",
".......##egghiggcc#cccc#........",
"........hfggjjggf#e#cccc##......",
"........hfggkkggfef###ccc#......",
".........hfgggggfl#ccccc#.......",
"..........heffffl#ccccc#........",
"...........hemnomp###...........",
"...........#oqrrso#.............",
"...........#rrrrssm#............",
"...........#rrrqmoo#............",
"...........#qqntefeh............",
"...........#rr##gflh............",
"...........#r#fggeh.............",
"...........#u#ggfh..............",
"...........#v#fg##..............",
"..........#vvv##wv#.............",
"..........#vvv#wwv#.............",
"........x#vvv#.#wwv#............",
".......x#yyzz#x#AAv#x...........",
".......xxxxxxxx#BCy#x...........",
".........xxxxxxxxxxx............",
"................................"};
