/* XPM */
static char *dummy[]={
"32 32 24 1",
". c None",
"v c #160808",
"# c #000000",
"k c #060000",
"q c #180e0e",
"p c #372532",
"r c #382020",
"c c #3f0905",
"m c #404545",
"j c #676c71",
"a c #681c00",
"t c #723f5c",
"s c #753e2d",
"f c #7c2454",
"e c #972b60",
"h c #a0a7ad",
"b c #ab400a",
"u c #ac5e90",
"g c #bd3776",
"o c #d48c52",
"d c #d77708",
"i c #d7d9e4",
"l c #ebb385",
"n c #ffd9ad",
"................................",
"................................",
"...........########.............",
".........##abacabac##...........",
"........#caaacccabbac#..........",
"......#cabddbabaddbdba#.........",
"......#cbddbabdddddbdbc#........",
"......#abbabbbddaddbbbc#........",
".....#cababddadddabbaba#........",
".....#cacbdbdbadbbbbbaa#........",
".....#ccabbabbbbbbabbcac#.......",
".....#ccabbabbbabbcaaaca#.......",
".....#ccaababbbbbbacaaa#c#......",
".....#c#caacabbbaaaacaac###.....",
".....#c#caaacaaaccaaccccccc.....",
"......##ccaaacaaaaccc######.....",
"........##cc#cc#cccccc##........",
"........#e##c#cc######..........",
".......#fgee#######egf#.........",
".......#fefhiihjiihfef#.........",
".......klf#jhihjihj#flk.........",
".......kll#mhhjjhhm#llk.........",
"......klll#mjhhjhjm#lllk........",
"......knnl#jjhhhhjj#lnnk........",
"......knno#pqrrrrqp#onnk........",
"......kols#ptuututp#slok........",
".......kkk#ppp##ppp#kkk.........",
"..........#pttp#ttp#............",
"..........#pttp#ttp#............",
".........v#pppp#ppp#v...........",
"........vv#pttp#ttp#vv..........",
"................................"};
