/* XPM */
static char *dummy[]={
"32 32 34 1",
". c None",
"B c #160808",
"# c #000000",
"h c #060000",
"v c #180e0e",
"C c #352b1b",
"u c #372532",
"w c #382020",
"a c #3f0905",
"t c #404545",
"D c #4e412b",
"m c #511738",
"y c #644c4c",
"s c #676c71",
"b c #681c00",
"k c #6b1717",
"z c #723f5c",
"j c #753e2d",
"n c #7c2454",
"E c #8b795b",
"p c #972b60",
"x c #9c8282",
"r c #a0a7ad",
"l c #a33333",
"c c #ab400a",
"A c #ac5e90",
"o c #bd3776",
"F c #c2a27c",
"f c #d48c52",
"d c #d77708",
"q c #d7d9e4",
"i c #e3e0dd",
"e c #ebb385",
"g c #ffd9ad",
"................................",
"..............########..........",
"............##abcbabcb##........",
"...........#abccbaaabbba#.......",
"..........#abccbccbccccbb#......",
".........#acccdcccdcbcddca#.....",
".........#accccdcddcccbccb#.....",
".........#bbcbcbddcbcdcabba.....",
".........#bbbcbaccbaaccbaba.....",
"........#abacbabcbaefabcbaa.....",
".......#ababbaabafeggeaaa#a.....",
".....####abbb#hhgggghhh#afa.....",
".....#abbbbaafhiggggihgj#ea.....",
"......#aaaa##gkkggggkkgj##a.....",
".......#aa##jellggggllej#a#.....",
"........##aa#jeggggggej#a#......",
"...........#mnmjfffjjmop#.......",
"..........#mpnpqnenpqpoon#......",
"..........#mnmrqoooqqrnpp#......",
".........hjff#sqqqqqqs#feh......",
".........hjfj#tsrrrss#egeh......",
".........hjjh#tsqqqr#gggfh......",
"..........hh.#srqqqr#ggejh......",
".............#uvwxwy#fefh.......",
".............#zuzzzuz##h........",
".............#uAuuuzzu#.........",
".............#zAz#uzzu#.........",
"............B#zzz#uuu#B.........",
"...........BB#uzz#CDD#BB........",
"...........BB#zAz#BBBBBB........",
"............B#EFE#BBBB..........",
"................................"};
