/* XPM */
static char *dummy[]={
"32 32 34 1",
". c None",
"B c #160808",
"# c #000000",
"i c #060000",
"x c #180e0e",
"D c #352b1b",
"y c #372532",
"v c #382020",
"c c #3f0905",
"t c #404545",
"C c #4e412b",
"p c #511738",
"u c #644c4c",
"n c #676c71",
"a c #681c00",
"k c #6b1717",
"z c #723f5c",
"f c #753e2d",
"m c #7c2454",
"F c #8b795b",
"o c #972b60",
"w c #9c8282",
"q c #a0a7ad",
"l c #a33333",
"b c #ab400a",
"A c #ac5e90",
"s c #bd3776",
"E c #c2a27c",
"e c #d48c52",
"d c #d77708",
"r c #d7d9e4",
"j c #e3e0dd",
"g c #ebb385",
"h c #ffd9ad",
"................................",
"............######..............",
"..........##abbbac##............",
".........#bddbaaaaac#...........",
"........#bddbccccacac#..........",
".......#abddbacabbaaca#.........",
".......#babbbcbaddbaaac#........",
".......#abaacaddbbdbaac#........",
".......#aaceeabdadbbaac#........",
".......#cfeggeabbaaba#c#........",
".......#ceghiiicaaccac##........",
".......#cehhijhhcc#ccc##........",
"........ighhkkhhg#e#ccc#........",
"........ighhllhhgeg##cc#........",
".........ighhhhhgf#c#ccc#.......",
"..........ieggggf#ccccccc#......",
"...........iemnomp#####.........",
"...........#oqrrso#.............",
"...........#rrrrssp#............",
"..........i#rrrqoom#............",
".........if#qqntfghgi...........",
"........iff#rrqt#ehhei..........",
"........iff#rrqn#ihhhi..........",
".........ii#uvwxy#ehgi..........",
"...........#yzyzy#iii...........",
"...........#zAAy##..............",
"..........#yAAzyy#..............",
".........#yyzzy#yyy#............",
"........B#AAzy#BCCD#B...........",
".......B#EEFC#BBBBBBB...........",
"........BBBBBBBBBBBB............",
"................................"};
