/* XPM */
static char *dummy[]={
"32 32 33 1",
". c None",
"A c #160808",
"# c #000000",
"h c #060000",
"t c #180e0e",
"B c #352b1b",
"x c #372532",
"v c #382020",
"a c #3f0905",
"s c #404545",
"C c #4e412b",
"l c #511738",
"w c #644c4c",
"n c #676c71",
"c c #681c00",
"j c #6b1717",
"y c #723f5c",
"e c #753e2d",
"o c #7c2454",
"D c #8b795b",
"m c #972b60",
"u c #9c8282",
"r c #a0a7ad",
"k c #a33333",
"b c #ab400a",
"z c #ac5e90",
"p c #bd3776",
"E c #c2a27c",
"f c #d48c52",
"d c #d77708",
"q c #d7d9e4",
"g c #ebb385",
"i c #ffd9ad",
"................................",
"...............######...........",
".............##abbcca##.........",
"............#acaaccbbca#........",
"...........#acacccbbbaca#.......",
"..........#cacbbbdddbddcc#......",
".........#accbdddddbdddca#......",
".........#acbddbbdbbddbca#......",
".........#accbbcdbcdbdcea#......",
".........#a#ccccbcbbbcefa#......",
".........##acaccacccafgf#.......",
".........#aaaccccca#hgifh.......",
".......##aaccccaa#gjjiigh.......",
".......#acccccaafiikkiigh.......",
"........#accaaa#giiiiigh........",
".........#aaa###fggggfh.........",
"............###lmmnofh..........",
"..............#mpqqrm#..........",
".............#opmqqqq#..........",
".............#mmlrqqq#h.........",
"............hgig#snrr#eh........",
"...........hfiifssrqq#eeh.......",
"...........hiiihsnrqq#eeh.......",
"...........hgif#ttuvw#hh........",
"............hhh#xyxyx#..........",
"...............#xxzzy#..........",
"...............##xyzzx#.........",
".............#xxx#xyyxx#........",
"............A#BC#A#xyzz#A.......",
"............AAAAAAA#CDEE#A......",
".............AAAAAAAAAAAA.......",
"................................"};
