/* XPM */
static char *dummy[]={
"32 32 33 1",
". c None",
"B c #160808",
"# c #000000",
"g c #060000",
"u c #180e0e",
"z c #372532",
"w c #382020",
"a c #3f0905",
"t c #404545",
"C c #4e412b",
"m c #511738",
"x c #644c4c",
"o c #676c71",
"c c #681c00",
"k c #6b1717",
"y c #723f5c",
"e c #753e2d",
"p c #7c2454",
"D c #8b795b",
"n c #972b60",
"v c #9c8282",
"s c #a0a7ad",
"l c #a33333",
"b c #ab400a",
"A c #ac5e90",
"q c #bd3776",
"E c #c2a27c",
"f c #d48c52",
"d c #d77708",
"r c #d7d9e4",
"i c #e3e0dd",
"h c #ebb385",
"j c #ffd9ad",
"................................",
"...............######...........",
".............##abbcca##.........",
"............#acaaccbbca#........",
"...........#acacccbbbaca#.......",
"..........#cacbbbdddbddac#......",
".........#accbdddddbdddaa#......",
".........#acbddbddcdbdcea#......",
".........#accbbcbcbbbcefa#......",
".........#a#cccccbbbceffa#......",
".........##acaccaccagfhf#.......",
".........##aacccca#ighjfg.......",
".........#aaccca#fhkkjjhg.......",
"........#acccca#fjjlljjhg.......",
".......#acccca##hjjjjjhg........",
"........#aaa####fhhhhfg.........",
"...........####mnnopfg..........",
"..............#nqrrsn#..........",
"..............#qnrrrr#..........",
".............#pnmsrrr#..........",
".............gfj#toss#..........",
".............gfj#tsrr#..........",
".............ghj#osrr#..........",
".............ghj#uvwx#..........",
".............gfj#yzyz#..........",
".............gej#zAy#...........",
"..............ggzyAy#...........",
"................zyyy#...........",
"..............BBzyyz#B..........",
".............BBBzyAy#BB.........",
".............BBBCDEE#BB.........",
"...............BBBBBB..........."};
