/* XPM */
static char *dummy[]={
"32 32 32 1",
". c None",
"B c #160808",
"# c #000000",
"i c #060000",
"v c #180e0e",
"u c #372532",
"w c #382020",
"a c #3f0905",
"t c #404545",
"C c #4e412b",
"o c #511738",
"y c #644c4c",
"s c #676c71",
"b c #681c00",
"k c #6b1717",
"z c #723f5c",
"e c #753e2d",
"p c #7c2454",
"D c #8b795b",
"m c #972b60",
"x c #9c8282",
"r c #a0a7ad",
"l c #a33333",
"c c #ab400a",
"A c #ac5e90",
"n c #bd3776",
"f c #d48c52",
"d c #d77708",
"q c #d7d9e4",
"j c #e3e0dd",
"g c #ebb385",
"h c #ffd9ad",
"................................",
"..............########..........",
"............##abcbabcb##........",
"...........#abccbaaabbba#.......",
"..........#abccbccbccccbb#......",
".........#acccddcddcbcddca#.....",
".........#acccdddcdcccbccb#.....",
".........#bcbccacdcacdcabba.....",
".........#bbccabccbeaccbaba.....",
"........#abacabcbafgfabcbaa.....",
"........#babbaabaghhhgaaa#a.....",
".......#a#bba#iihhhhiii#afa.....",
"......###bbb#fijhhhhjihe#ga.....",
".....#aabba#ehkkhhhhkkhe##a.....",
"......#aaa##egllhhhhllge#a#.....",
".......##aaa#eghhhhhhge#a#......",
"...........#mnoefffeeonm#.......",
"..........#pnnmqpgpmqmnnp#......",
"..........#pmprqnnnqqrpmp#......",
"..........igp#sqqqqqqs#pgi......",
"..........igg#tsrrrsst#ggi......",
".........ighg#tsqqqrst#ghgi.....",
".........ihhg#srqqqrrs#ghhi.....",
".........ihhf#uvwxwyvu#fhhi.....",
".........ighe#zuzzzuuz#ehgi.....",
"..........iii#uzuuuzzu#iii......",
".............#zAu#uzAz#.........",
".............#uzu#uzzu#.........",
"............B#uzu#uuzu#B........",
"...........BB#zAu#uzAz#BB.......",
"...........BB#CDC#CDDC#BB.......",
"............BBBBBBBBBBBB........"};
