/* XPM */
static char *dummy[]={
"32 32 26 1",
". c None",
"w c #160808",
"# c #000000",
"i c #060000",
"s c #180e0e",
"r c #372532",
"t c #382020",
"c c #3f0905",
"o c #404545",
"x c #4e412b",
"e c #511738",
"m c #676c71",
"a c #681c00",
"u c #723f5c",
"j c #753e2d",
"f c #7c2454",
"g c #972b60",
"k c #a0a7ad",
"b c #ab400a",
"v c #ac5e90",
"h c #bd3776",
"p c #d48c52",
"d c #d77708",
"l c #d7d9e4",
"n c #ebb385",
"q c #ffd9ad",
"................................",
"................................",
"...........########.............",
".........##abacabac##...........",
"........#caaacccabbac#..........",
"......#cabddbabaddbdba#.........",
"......#cbddbabdddddbdbc#........",
"......#abbabbbddaddbbbc#........",
".....#cababddadddabbaba#........",
".....#cacbdbdbadbbbbbaa#........",
".....#ccabbabbbbbbabbcac#.......",
".....#ccabbabbbabbcaaacac#......",
".....#ccaababbbbbbacaaac###.....",
".....#c#caacabbbaaaaccccccc.....",
".....#c#caaacaaaccaaaccccc#.....",
"......##ccaaacaaaaccc#####......",
"........##cc#cc#cccccc#.........",
"........#e##c#cc######..........",
"........#fgg#######hhf#.........",
".......ijeekllkmllkfgf#.........",
".......ijj#mklkmlkm#fni.........",
".......ijj#okkmmkko#pqni........",
".......ijj#omkkmkmo#pqqi........",
"........ii#mmkkkkmm#jqqqi.......",
"..........#rsttttsr#inqqi.......",
"..........#ruvvuvur#ipqni.......",
"..........#rrr##rr##.iii........",
"..........#rvvu#rr#.............",
".........w#rvvu#r##w............",
"........ww#ruur#xx#ww...........",
"................................",
"................................"};
