/* XPM */
static char *dummy[]={
"32 32 32 1",
". c None",
"B c #160808",
"# c #000000",
"h c #060000",
"x c #180e0e",
"y c #372532",
"v c #382020",
"c c #3f0905",
"t c #404545",
"p c #511738",
"u c #644c4c",
"n c #676c71",
"a c #681c00",
"j c #6b1717",
"z c #723f5c",
"l c #753e2d",
"m c #7c2454",
"D c #8b795b",
"o c #972b60",
"w c #9c8282",
"q c #a0a7ad",
"k c #a33333",
"b c #ab400a",
"A c #ac5e90",
"s c #bd3776",
"C c #c2a27c",
"e c #d48c52",
"d c #d77708",
"r c #d7d9e4",
"i c #e3e0dd",
"f c #ebb385",
"g c #ffd9ad",
"................................",
"............######..............",
"..........##abbbac##............",
".........#bddbaaaaac#...........",
"........#bddbccccacac#..........",
".......#abdbdacabbbaca#.........",
".......#bbbdbcbbbddbaac#........",
".......#babbaabdbbddbac#........",
".......#abacecadbabbaac#........",
".......#aceffecabbcaa#c#........",
".......#cefghhheaaacac##........",
".......##egghiggcc#ccc##........",
"........hfggjjggf#e#ccc#........",
"........hfggkkggfef##ccc#.......",
".........hfgggggfl#cc#ccc#......",
"..........heffffl#cccccc#.......",
"...........hemnomp####..........",
"...........#oqrrso#.............",
"...........#rrrrss#.............",
"...........#rrrqoom#............",
"...........#qqntfgeh............",
"...........#rrqtggeh............",
"...........#rrqnggfh............",
"...........#uvwxggfh............",
"...........#yzyzggeh............",
"............#zAyeglh............",
"............#zAz#hh.............",
"............#zzz#...............",
"...........B#yzz#BB.............",
"..........BB#zAz#BBB............",
"..........BB#CCD#BBB............",
"............BBBBBB.............."};
