/* XPM */
static char *dummy[]={
"32 32 34 1",
". c None",
"B c #160808",
"# c #000000",
"i c #060000",
"x c #180e0e",
"D c #352b1b",
"y c #372532",
"u c #382020",
"a c #3f0905",
"t c #404545",
"C c #4e412b",
"o c #511738",
"w c #644c4c",
"s c #676c71",
"b c #681c00",
"k c #6b1717",
"z c #723f5c",
"e c #753e2d",
"p c #7c2454",
"E c #8b795b",
"m c #972b60",
"v c #9c8282",
"r c #a0a7ad",
"l c #a33333",
"c c #ab400a",
"A c #ac5e90",
"n c #bd3776",
"F c #c2a27c",
"f c #d48c52",
"d c #d77708",
"q c #d7d9e4",
"j c #e3e0dd",
"g c #ebb385",
"h c #ffd9ad",
"................................",
"..............########..........",
"............##abcbabcb##........",
"...........#abccbaaabbba#.......",
"..........#abccbccbccccbb#......",
".........#abdcddcddcccddca#.....",
".........#accddddddbccbccb#.....",
".........#bcdccbcdcacdcabba.....",
".........#bcccbccbaeaccbaba.....",
"........#aabcabbafghfabcbaa.....",
"........#babbaaaghhhhgaaa#a.....",
"........#abba#iihhhhiii#afa.....",
".......#a#bb#hijhhhhjihe#ga.....",
".....####bbaehkkhhhhkkhe##a.....",
".....#aaaa##egllhhhhllge#a#.....",
"......##aaaa#eghhhhhhge#a#......",
"...........#mnoefffeeopo#.......",
"..........#pnnmqpgpmqmpmo#......",
"..........#mmprqnnnqqropo#......",
"..........igf#sqqqqqqs#ffei.....",
"..........ighg#srrrsst#efei.....",
"..........ifhhh#qqqrst#ieei.....",
"..........ieghh#qqqrrs#.ii......",
"...........ifgf#uvuwxy#.........",
"............i##zzzzyyz#.........",
".............#yzyyyzAy#.........",
".............#yzy#zAAz#.........",
".............B#yy#zzzz#B........",
"............BB#CD#zzzy#BB.......",
"............BBBBB#zAAz#BB.......",
"..............BBB#EFFE#B........",
"................................"};
