/* XPM */
static char *dummy[]={
"32 32 27 1",
". c None",
"w c #160808",
"# c #000000",
"m c #060000",
"s c #180e0e",
"y c #352b1b",
"r c #372532",
"t c #382020",
"c c #3f0905",
"q c #404545",
"x c #4e412b",
"k c #511738",
"j c #676c71",
"a c #681c00",
"u c #723f5c",
"l c #753e2d",
"f c #7c2454",
"e c #972b60",
"h c #a0a7ad",
"b c #ab400a",
"v c #ac5e90",
"g c #bd3776",
"p c #d48c52",
"d c #d77708",
"i c #d7d9e4",
"n c #ebb385",
"o c #ffd9ad",
"................................",
"................................",
"...........########.............",
".........##abacabac##...........",
"........#caaacccabbac#..........",
"......#cabddbabaddbdba#.........",
"......#cbddbabdddddbdbc#........",
"......#abbabbbddaddbbbc#........",
".....#cababddadddabbaba#........",
".....#cacbdbdbadbbbbbaa#........",
".....#ccabbabbbbbbabbcac#.......",
".....#ccabbabbbabbcaaaca#.......",
".....#ccaababbbbbbacaaac#.......",
".....#c#caacabbbaaaacaacc#......",
".....#c#caaacaaaccaacccccc#.....",
"......##ccaaacaaaac#ccccccc.....",
"........##cc#cc#cccccc###.......",
"........#e##c#cc######..........",
".......#fgge#######ef#..........",
".......#fefhiihjiihkklm.........",
".......mnf#jhihjihj#llm.........",
"......mnop#qhhjjhhq#llm.........",
"......moop#qjhhjhjq#llm.........",
".....moool#jjhhhhjj#mm..........",
".....moonm#rsttttsr#............",
".....mnopm#ruvvuvur#............",
"......mmm.##rr##rrr#............",
"...........#rr##vvr#............",
"..........w##r##vvr#w...........",
".........ww#xxy#uur#ww..........",
"................................",
"................................"};
