/* XPM */
static char *dummy[]={
"32 32 31 1",
". c None",
"y c #160808",
"# c #000000",
"g c #060000",
"z c #352b1b",
"v c #372532",
"a c #3f0905",
"t c #404545",
"A c #4e412b",
"m c #511738",
"u c #644c4c",
"o c #676c71",
"c c #681c00",
"k c #6b1717",
"x c #723f5c",
"e c #753e2d",
"p c #7c2454",
"B c #8b795b",
"n c #972b60",
"s c #a0a7ad",
"l c #a33333",
"b c #ab400a",
"w c #ac5e90",
"q c #bd3776",
"C c #c2a27c",
"f c #d48c52",
"d c #d77708",
"r c #d7d9e4",
"i c #e3e0dd",
"h c #ebb385",
"j c #ffd9ad",
"................................",
"...............######...........",
".............##abbcca##.........",
"............#acaaccbbca#........",
"...........#acacccbbbaca#.......",
"..........#cacbbbddbddbac#......",
".........#accbddddbdddbaa#......",
".........#acbbdbdbdbdbcea#......",
".........#accbbccbbdbcefa#......",
".........#a#cccbbbbcaeffa#......",
".........##accbaccaagfhf#.......",
".........##acccaaaeighjfg.......",
".........#aaccaa#fhkkjjhg.......",
".........#aacca#fjjlljjhg.......",
"........#aaccc##hjjjjjhg........",
".......#acccca##fhhhhfg.........",
"..........#####mnnopfg..........",
"..............#nqrrsn#..........",
".............#pqnrrrr#..........",
".............#nn#srrr#..........",
".............gfh#toss#..........",
".............gehh##rr#..........",
"..............gfjjh#r#..........",
"...............gjjj#u#..........",
"...............#fjh#v#..........",
"..............#v###vvv#.........",
"..............#vwx#vvv#.........",
".............#vxv#.#vvv#y.......",
"............y#vwx#y#zzAA#y......",
"............y#ABC#yyyyyyyy......",
".............yyyyyyyyyyy........",
"................................"};
